<svg xmlns="http://www.w3.org/2000/svg" width="128" height="128" enable-background="new 0 0 64 64" viewBox="0 0 64 64"><path fill="#283e79" d="M63.508,36.111L38.316,21.904C38.141,7.998,36.072,1.21,32.002,1.21c-4.072,0-6.141,6.787-6.316,20.691L0.494,36.111
		c-0.381,0.214-0.57,0.657-0.465,1.08l1.326,5.296c0.109,0.438,0.502,0.734,0.939,0.734c0.057,0,0.113-0.005,0.172-0.015
		l23.779-4.238c0.26,3.517,0.594,6.933,1.002,10.025c0.137,1.048,0.277,2.007,0.416,2.899l-8.316,4.626
		c-0.342,0.192-0.537,0.572-0.49,0.964l0.537,4.454c0.035,0.278,0.188,0.529,0.42,0.686c0.162,0.11,0.352,0.167,0.543,0.167
		c0.084,0,0.168-0.011,0.25-0.032l9.096-2.415c0.938,2.184,1.773,2.189,2.299,2.189s1.359-0.005,2.297-2.188l9.094,2.414
		c0.082,0.021,0.166,0.032,0.248,0.032c0.191,0,0.383-0.057,0.545-0.167c0.232-0.157,0.385-0.407,0.418-0.685l0.545-4.454
		c0.049-0.392-0.145-0.773-0.49-0.965l-8.32-4.624c0.141-0.893,0.279-1.852,0.418-2.901c0.406-3.092,0.742-6.508,1-10.025
		l23.779,4.237c0.057,0.01,0.113,0.015,0.17,0.015c0.438,0,0.832-0.296,0.939-0.734l1.326-5.296
		C64.078,36.768,63.889,36.325,63.508,36.111z M3.016,41.138L2.09,37.437l23.582-13.3c0.006,4.139,0.16,8.559,0.438,12.886
		L3.016,41.138z M21.188,60.597l-0.326-2.699l7.146-3.975c0.35,1.928,0.703,3.426,1.047,4.586L21.188,60.597z M31.242,59.094
		c-0.006-0.054,0.004-0.106-0.01-0.161c-0.029-0.11-0.084-0.204-0.145-0.292c-0.475-1.458-0.949-3.637-1.389-6.332
		c-0.002-0.004-0.002-0.008-0.002-0.012c-1.166-7.129-2.09-17.86-2.09-28.424c0-19.229,3.363-20.723,4.395-20.723
		c1.029,0,4.393,1.494,4.393,20.723c0,10.557-0.922,21.281-2.086,28.411c-0.002,0.012-0.004,0.022-0.006,0.034
		c-0.439,2.682-0.912,4.854-1.383,6.309c-0.064,0.092-0.121,0.191-0.152,0.306c-0.014,0.057-0.004,0.112-0.01,0.168
		c-0.256,0.702-0.51,1.187-0.756,1.419C31.754,60.288,31.498,59.8,31.242,59.094z M43.145,57.897l-0.33,2.7l-7.867-2.088
		c0.346-1.16,0.697-2.658,1.049-4.585L43.145,57.897z M60.984,41.138l-23.092-4.114c0.279-4.327,0.434-8.747,0.439-12.885
		L61.91,37.437L60.984,41.138z"/><path fill="#283e79" d="M33.322,11.282c0.33,0.422,0.939,0.496,1.361,0.165c0.422-0.33,0.496-0.94,0.166-1.361C33.961,8.952,33,8.376,31.996,8.376
		c-0.002,0-0.006,0-0.008,0c-1.004,0.003-1.959,0.579-2.838,1.714c-0.328,0.423-0.25,1.032,0.174,1.36
		c0.178,0.137,0.385,0.203,0.594,0.203c0.289,0,0.576-0.129,0.768-0.376c0.479-0.619,0.943-0.961,1.309-0.962h0.002
		C32.363,10.316,32.834,10.659,33.322,11.282z"/></svg>