<svg xmlns="http://www.w3.org/2000/svg" width="128" height="128" enable-background="new 0 0 64 64" viewBox="0 0 64 64"><path fill="#283e79" d="M61,25c0-3.309-2.691-6-6-6H38.921c-0.061-1.078-0.149-2.058-0.27-2.962c0.03-0.122,0.014-0.245-0.048-0.368
			C38.457,14.625,38.23,11,36.72,11H33V9h7c1.29,0,1.29-2,0-2H24c-1.29,0-1.29,2,0,2h7v2h-3.72c-0.935,0-1.113,1.11-1.307,1.81
			c-0.263,0.948-0.604,2.071-0.604,3.061c-0.131,0.95-0.227,1.984-0.291,3.13H9c-5.395,0-8.021,6.875-3.978,10.48
			C5.254,32.564,7.683,35,10.64,35h15.018c0.324,3.559,0.756,6.975,1.265,10H22.14c-4.183,0-4.178,8,0,8h6.638
			c0.476,1.412,1.348,4,3.223,4s2.747-2.588,3.223-4h6.638c4.177,0,4.183-8,0-8h-4.782c0.509-3.026,0.941-6.444,1.266-10H53.36
			c2.957,0,5.386-2.436,5.617-5.521C60.248,28.347,61,26.71,61,25z M28.001,13h7.998c0.184,0.604,0.342,1.272,0.473,2h-8.943
			C27.659,14.272,27.817,13.604,28.001,13z M27.244,17h9.512c0.067,0.624,0.122,1.288,0.164,2h-9.84
			C27.122,18.288,27.177,17.624,27.244,17z M10.64,33c-1.425,0-2.661-0.904-3.258-2.218C7.9,30.928,8.462,31,9,31h16.329
			c0.045,0.66,0.097,1.328,0.15,2H10.64z M21.587,50.714C20.907,49.992,20.581,47,22.14,47h5.971H31v4h-1.5h-7.36
			C21.901,51,21.712,50.85,21.587,50.714C21.22,50.324,21.712,50.85,21.587,50.714z M32,54.972
			c-0.146-0.111-0.562-0.534-1.108-1.972h2.217C32.562,54.438,32.146,54.86,32,54.972C31.854,54.86,32.146,54.86,32,54.972z M43,49
			c0,0.625-0.286,2-1.14,2H34.5H33v-4h2.89h5.971C42.398,47,43,47.855,43,49z M33,45v-3c0-1.29-2-1.29-2,0v3h-2.051
			c-0.562-3.268-1.031-7.029-1.369-10.95c0.027-0.108,0.017-0.219-0.031-0.329l-0.036-0.393l-0.006-0.069
			c-0.062-0.758-0.111-1.508-0.163-2.259h9.313c-0.052,0.749-0.102,1.499-0.162,2.247l-0.061,0.66c0,0.001,0.001,0.002,0,0.003
			v0.005c-0.339,3.966-0.814,7.777-1.383,11.085H33z M53.36,33h-14.84c0.054-0.669,0.105-1.337,0.15-2H55
			c0.54,0,1.097-0.075,1.618-0.218C56.021,32.096,54.785,33,53.36,33z M57.396,28.203C56.709,28.725,55.88,29,55,29H37.73H26.27H9
			c-2.284,0-4.146-1.996-3.991-4.273C5.149,22.657,6.928,21,9,21h17.03H37.97c0.008,0.001,0.015,0.001,0.02,0H55
			C58.759,21,60.403,25.939,57.396,28.203C56.709,28.725,58.401,27.446,57.396,28.203z"/><path fill="#283e79" d="M10 22c-3.868 0-3.868 6 0 6S13.868 22 10 22zM10 26c-1.289 0-1.289-2 0-2S11.289 26 10 26zM54 22c-3.868 0-3.868 6 0 6S57.868 22 54 22zM54 26c-1.289 0-1.289-2 0-2S55.289 26 54 26z"/></svg>