<svg width="146" height="41" viewBox="0 0 146 41" fill="none" xmlns="http://www.w3.org/2000/svg">
<path d="M3.749 13.764C4.561 12.7 5.492 11.881 6.542 11.307C7.606 10.719 8.775 10.425 10.049 10.425C12.023 10.425 13.619 10.901 14.837 11.853C16.055 12.805 16.944 14.149 17.504 15.885C18.064 17.607 18.344 19.623 18.344 21.933C18.344 24.159 18.008 26.147 17.336 27.897C16.664 29.633 15.677 30.998 14.375 31.992C13.087 32.986 11.491 33.483 9.587 33.483C7.025 33.483 5.016 32.559 3.56 30.711L3.308 33H0.221V1.983L3.749 1.542V13.764ZM8.747 30.627C10.595 30.627 12.016 29.913 13.01 28.485C14.004 27.057 14.501 24.866 14.501 21.912C14.501 19.98 14.305 18.377 13.913 17.103C13.521 15.815 12.933 14.856 12.149 14.226C11.379 13.582 10.427 13.26 9.293 13.26C8.061 13.26 6.976 13.631 6.038 14.373C5.114 15.101 4.351 15.913 3.749 16.809V27.771C4.323 28.639 5.044 29.332 5.912 29.85C6.794 30.368 7.739 30.627 8.747 30.627ZM28.9326 10.887V26.553C28.9326 28.009 29.2336 29.059 29.8356 29.703C30.4376 30.347 31.3756 30.669 32.6496 30.669C33.8676 30.669 35.0156 30.326 36.0936 29.64C37.1856 28.94 38.0326 28.114 38.6346 27.162V10.887H42.1626V33H39.1596L38.8656 30.018C37.9976 31.138 36.9266 31.999 35.6526 32.601C34.3786 33.189 33.0906 33.483 31.7886 33.483C29.6466 33.483 28.0436 32.916 26.9796 31.782C25.9296 30.634 25.4046 29.031 25.4046 26.973V10.887H28.9326ZM61.7812 10.887V30.207H68.0182V33H51.4282V30.207H58.2532V13.68H51.6382V10.887H61.7812ZM58.9672 0.533997C59.7512 0.533997 60.3742 0.771998 60.8362 1.248C61.3122 1.724 61.5502 2.305 61.5502 2.991C61.5502 3.705 61.3122 4.307 60.8362 4.797C60.3742 5.273 59.7512 5.511 58.9672 5.511C58.2252 5.511 57.6162 5.273 57.1402 4.797C56.6642 4.307 56.4262 3.705 56.4262 2.991C56.4262 2.305 56.6642 1.724 57.1402 1.248C57.6162 0.771998 58.2252 0.533997 58.9672 0.533997ZM84.3818 1.983V27.54C84.3818 28.632 84.7178 29.409 85.3898 29.871C86.0758 30.319 86.9578 30.543 88.0358 30.543C88.7078 30.543 89.3448 30.473 89.9468 30.333C90.5488 30.193 91.1508 30.004 91.7528 29.766L92.6978 32.349C92.0958 32.643 91.3468 32.902 90.4508 33.126C89.5688 33.364 88.5678 33.483 87.4478 33.483C85.4878 33.483 83.8988 32.944 82.6808 31.866C81.4628 30.774 80.8538 29.269 80.8538 27.351V4.776H74.0708V1.983H84.3818ZM114.185 1.542L117.713 1.983V33H114.626L114.29 30.081C113.464 31.257 112.512 32.118 111.434 32.664C110.37 33.21 109.229 33.483 108.011 33.483C106.093 33.483 104.511 33 103.265 32.034C102.019 31.068 101.095 29.724 100.493 28.002C99.8914 26.266 99.5904 24.257 99.5904 21.975C99.5904 19.763 99.9334 17.789 100.619 16.053C101.305 14.303 102.292 12.931 103.58 11.937C104.882 10.929 106.443 10.425 108.263 10.425C109.537 10.425 110.657 10.649 111.623 11.097C112.589 11.531 113.443 12.175 114.185 13.029V1.542ZM109.187 13.26C107.339 13.26 105.918 13.981 104.924 15.423C103.93 16.865 103.433 19.049 103.433 21.975C103.433 23.879 103.636 25.475 104.042 26.763C104.448 28.051 105.043 29.017 105.827 29.661C106.625 30.305 107.598 30.627 108.746 30.627C110.006 30.627 111.077 30.27 111.959 29.556C112.855 28.842 113.597 28.037 114.185 27.141V16.095C113.583 15.199 112.855 14.506 112.001 14.016C111.147 13.512 110.209 13.26 109.187 13.26ZM124.018 40.623V37.536H145.018V40.623H124.018Z" fill="white"/>
</svg>
