<svg width="172" height="38" viewBox="0 0 172 38" fill="none" xmlns="http://www.w3.org/2000/svg">
<path fill-rule="evenodd" clip-rule="evenodd" d="M66.445 20.9242C64.0073 21.6453 61.7735 22.3538 59.7433 23.0496L59.1621 27.6162C58.7877 30.3778 57.9409 32.5508 56.5453 34.0389C55.1308 35.5471 53.2259 36.274 50.9152 36.274C49.2244 36.274 47.82 35.7715 46.8062 34.6852L46.7983 34.6767C45.8146 33.5877 45.3428 32.2128 45.3428 30.6108C45.3428 27.064 47.7978 24.013 52.251 21.4039L54.527 2.03586C54.5509 1.83207 54.6618 1.64861 54.8312 1.53274C55.4884 1.08309 56.3216 0.723018 57.3063 0.437133C58.3026 0.147889 59.2781 0 60.2307 0C61.1008 0 61.7171 0.0143548 62.0359 0.0497839C62.2255 0.070841 62.3985 0.16724 62.5162 0.317279C62.6339 0.467317 62.6863 0.658382 62.6616 0.847457L60.4477 17.7924C62.1178 17.2297 64.1056 16.6389 66.4083 16.0199L66.4204 16.0167L67.0353 15.863L68.7048 1.67223C68.7195 1.54778 68.7668 1.42942 68.842 1.32918C69.0589 1.03998 69.4108 0.863592 69.7173 0.742581C70.0533 0.609951 70.4781 0.491107 70.9773 0.381645C72.0199 0.129442 73.013 0 73.9542 0C74.8917 0 75.7203 0.128394 76.411 0.419178C76.7054 0.543137 76.8807 0.848436 76.8395 1.1652L72.3862 35.383C72.3402 35.7367 72.0388 36.0014 71.6821 36.0014H65.502C65.2995 36.0014 65.1067 35.9149 64.9719 35.7638C64.8372 35.6126 64.7735 35.4111 64.7967 35.2099L66.445 20.9242ZM143.494 31.6111C142.945 32.5691 142.318 33.387 141.608 34.0578C140.077 35.506 138.203 36.2286 136.031 36.2286C134.002 36.2286 132.373 35.5997 131.293 34.2318C130.301 32.9753 129.777 31.6123 129.777 30.1565C129.777 30.1308 129.779 30.1053 129.781 30.0798L130.868 20.0769C130.861 19.405 130.686 18.8965 130.381 18.5048C130.136 18.1896 129.701 17.961 128.897 17.961C128.193 17.961 127.566 18.2222 126.99 18.7982C126.405 19.3831 125.981 20.1432 125.734 21.1066C124.829 28.7704 124.238 33.5383 123.964 35.395C123.913 35.7434 123.614 36.0014 123.262 36.0014H117.4C117.198 36.0014 117.005 35.9151 116.87 35.7641C116.735 35.613 116.671 35.4117 116.694 35.2107L118.416 20.1657C118.41 19.4583 118.231 18.9376 117.93 18.5503C117.921 18.5389 117.913 18.5272 117.904 18.5153C117.698 18.2138 117.269 17.961 116.355 17.961C115.605 17.961 114.961 18.3041 114.401 19.1444L114.395 19.1528C113.785 20.0397 113.404 20.9702 113.239 21.9487C112.178 29.4972 111.592 33.9529 111.473 35.3516C111.442 35.7191 111.134 36.0014 110.765 36.0014H104.676C104.473 36.0014 104.28 35.9148 104.146 35.7634C104.011 35.612 103.947 35.4102 103.971 35.2089L104.222 33.0591C103.435 33.6579 102.333 34.3813 101.224 34.9815C100.599 35.3196 99.959 35.6258 99.3605 35.8492C98.7751 36.0677 98.174 36.2286 97.6458 36.2286C96.2393 36.2286 95.0074 35.9579 93.987 35.3736C93.2625 34.9587 92.6674 34.3985 92.2006 33.7053C90.5731 35.3844 88.4955 36.2286 86.0127 36.2286C83.7176 36.2286 81.8405 35.6537 80.487 34.4044C79.1455 33.1661 78.4864 31.5459 78.4864 29.6112C78.4864 29.1316 78.5692 28.3459 78.7198 27.2909C79.416 21.6605 79.9454 17.1829 80.3082 13.8567C80.3378 13.5858 80.5198 13.3557 80.7766 13.2645C81.7727 12.9111 82.7175 12.7238 83.6043 12.7238C84.4004 12.7238 85.0352 12.7538 85.4845 12.8229C86.0844 12.9152 86.5993 13.2535 87.0343 13.7247C87.5565 14.2905 87.7679 15.0467 87.7679 15.8877C87.7679 15.9182 87.7659 15.9486 87.762 15.9788L86.2624 27.5665C86.2613 27.5751 86.2601 27.5836 86.2586 27.5921C86.2032 27.925 86.1774 28.2186 86.1774 28.4751C86.1774 29.2742 86.3616 29.741 86.6046 30.0065C86.8368 30.2602 87.2297 30.4462 87.9213 30.4462C89.1007 30.4462 90.1166 29.912 90.9863 28.702C90.9962 28.3483 91.0269 27.8714 91.0762 27.2801L91.0782 27.2596L91.0791 27.2516L92.5787 15.1641C92.5865 15.1012 92.6027 15.0397 92.6268 14.9812C92.9264 14.2535 93.5407 13.7232 94.3292 13.3439C95.1516 12.9176 96.1316 12.7238 97.2368 12.7238C98.339 12.7238 99.2805 12.8767 99.9598 13.2763C100.204 13.4201 100.34 13.6959 100.304 13.9774C99.6832 18.8846 99.2177 22.6428 98.9075 25.253C98.7524 26.5584 98.6363 27.5745 98.5592 28.3028C98.4797 29.0532 98.4467 29.4535 98.4467 29.5657C98.4467 30.107 98.5486 30.3848 98.641 30.5122C98.7026 30.5972 98.7977 30.6734 99.0545 30.6734C99.3414 30.6734 99.7025 30.641 100.286 30.3148C100.896 29.974 101.755 29.3086 102.991 28.0045C104.567 26.0911 104.875 24.8245 105.304 23.0612C105.358 22.8431 105.413 22.6174 105.472 22.382L106.47 13.8512C106.504 13.5608 106.713 13.3209 106.996 13.2468C108.281 12.9101 109.323 12.7238 110.084 12.7238C111.101 12.7238 111.989 12.8908 112.668 13.3045C113.047 13.5352 113.344 13.8319 113.556 14.1842C114.942 13.2205 116.454 12.7238 118.082 12.7238C121.204 12.7238 123.565 13.5278 124.89 15.3212C126.468 13.558 128.581 12.6784 131.169 12.6784C133.321 12.6784 135.112 13.2424 136.456 14.4469C137.791 15.6121 138.468 17.1092 138.468 18.8869C138.468 19.4036 138.368 20.2566 138.187 21.4042C137.839 23.6735 137.579 25.4697 137.405 26.7949C137.23 28.1399 137.15 28.9545 137.15 29.2931C137.15 29.9495 137.262 30.3182 137.385 30.504C137.473 30.638 137.589 30.7188 137.849 30.7188C138.319 30.7188 138.971 30.4036 139.808 29.423L139.809 29.4217C140.678 28.4076 141.826 26.8144 142.34 24.8123C142.63 21.4468 143.829 18.6522 145.974 16.4795C148.451 13.9703 151.592 12.7238 155.34 12.7238H155.612C157.081 12.7238 158.457 12.954 159.731 13.4214C160.612 12.9484 161.625 12.7238 162.747 12.7238C163.954 12.7238 164.965 12.8721 165.652 13.2763C165.895 13.4195 166.031 13.6935 165.997 13.974C165.724 16.2197 165.435 18.4352 165.132 20.6204C164.829 22.7713 164.617 24.3003 164.496 25.2062C164.224 27.264 164.093 28.7078 164.093 29.5657C164.093 30.0957 164.202 30.3619 164.301 30.4854C164.376 30.5787 164.509 30.6734 164.837 30.6734C165.274 30.6734 165.895 30.3769 166.701 29.4283C167.458 28.5068 168.166 27.0097 168.791 24.8682C168.859 24.6339 169.043 24.4512 169.278 24.3842C169.512 24.3172 169.765 24.3754 169.946 24.5383C170.901 25.3944 171.583 26.3716 171.962 27.4718C172.01 27.6134 172.013 27.7667 171.969 27.9099C171.071 30.8512 169.833 33.038 168.188 34.3474L168.181 34.3529C166.609 35.5722 164.99 36.2286 163.338 36.2286C160.8 36.2286 158.851 35.4585 157.676 33.8131C156.069 35.4456 154.067 36.2741 151.705 36.2741C149.071 36.2741 146.816 35.3725 144.982 33.5713L144.977 33.5668C144.385 32.9742 143.891 32.3215 143.494 31.6111ZM151.948 19.6399C150.949 20.9366 150.303 22.957 150.095 25.8002L150.094 25.8151L150.093 25.827C150.065 26.0769 150.052 26.3081 150.052 26.5211C150.052 27.8935 150.372 28.9012 150.938 29.6184C151.533 30.3335 152.256 30.6734 153.159 30.6734C154.608 30.6734 155.854 29.7002 156.78 27.1764L157.8 17.9946C157.177 17.7874 156.585 17.6883 156.022 17.6883C154.294 17.6883 152.96 18.3354 151.948 19.6399ZM51.7191 26.7711C50.6834 27.5284 48.7362 29.2705 49.2335 30.1792C49.8552 31.3153 51.098 31.3153 51.7194 30.1792C52.2165 29.2704 51.9263 27.5284 51.7191 26.7711Z" fill="white"/>
<path d="M20.0174 6.76713C18.6142 9.1995 16.8182 10.8399 15.9763 10.3308C15.1343 9.82174 15.6395 7.44593 17.0427 5.01356C18.4459 2.58119 20.2419 0.940748 21.0838 1.44985C21.8696 1.95895 21.4206 4.33476 20.0174 6.76713Z" fill="white"/>
<path d="M13.3387 7.55908C13.3387 10.3874 12.5529 12.7067 11.5987 12.7067C10.6446 12.7067 9.8588 10.3874 9.8588 7.55908C9.8588 4.73074 10.6446 2.4115 11.5987 2.4115C12.609 2.4115 13.3387 4.73074 13.3387 7.55908Z" fill="white"/>
<path d="M8.00661 11.5753C9.40979 14.0077 9.85881 16.44 9.07303 16.8926C8.23112 17.4017 6.43505 15.7612 5.03186 13.3289C3.62868 10.8965 3.17966 8.46411 3.96544 8.01158C4.75123 7.50247 6.60343 9.08634 8.00661 11.5753Z" fill="white"/>
<path d="M5.36807 17.7411C7.78155 19.1553 9.40924 20.9654 8.90409 21.8139C8.39895 22.6624 6.0416 22.1533 3.62813 20.7392C1.21465 19.325 -0.413043 17.5149 0.0921027 16.6664C0.541121 15.8744 2.89847 16.327 5.36807 17.7411Z" fill="white"/>
<path d="M6.09755 24.4159C8.90391 24.4159 11.2051 25.2079 11.2051 26.1695C11.2051 27.1311 8.90391 27.9231 6.09755 27.9231C3.29118 27.9231 0.98996 27.1311 0.98996 26.1695C0.98996 25.2079 3.29118 24.4159 6.09755 24.4159Z" fill="white"/>
<path d="M10.0829 29.8464C12.4964 28.4322 14.9098 27.9796 15.3589 28.7716C15.864 29.6201 14.2363 31.4302 11.8228 32.8444C9.40937 34.2586 6.99589 34.7111 6.54688 33.9192C6.04173 33.0707 7.66942 31.2605 10.0829 29.8464Z" fill="white"/>
<path d="M16.2012 32.505C17.6044 30.0727 19.4005 28.4322 20.2424 28.9413C21.0843 29.3939 20.5791 31.8262 19.176 34.2586C17.7728 36.691 15.9767 38.3314 15.1348 37.8223C14.349 37.3132 14.798 34.9374 16.2012 32.505Z" fill="white"/>
<path d="M22.8239 31.7131C22.8239 28.8848 23.6097 26.5655 24.5639 26.5655C25.518 26.5655 26.3038 28.8848 26.3038 31.7131C26.3038 34.5414 25.518 36.8607 24.5639 36.8607C23.6097 36.8607 22.8239 34.5414 22.8239 31.7131Z" fill="white"/>
<path d="M28.2119 27.6968C26.8087 25.2645 26.3597 22.8321 27.1455 22.3796C27.9874 21.8705 29.7835 23.5109 31.1867 25.9433C32.5898 28.3756 33.0389 30.808 32.2531 31.2606C31.4112 31.7697 29.6151 30.1858 28.2119 27.6968Z" fill="white"/>
<path d="M30.8494 21.5311C28.4359 20.1169 26.8082 18.3068 27.3134 17.4583C27.8185 16.6098 30.1759 17.1189 32.5894 18.5331C35.0028 19.9472 36.6305 21.7574 36.1254 22.6059C35.6764 23.4544 33.319 22.9453 30.8494 21.5311Z" fill="white"/>
<path d="M30.1209 14.8562C27.3146 14.8562 25.0133 14.0642 25.0133 13.1026C25.0133 12.141 27.3146 11.349 30.1209 11.349C32.9273 11.349 35.2285 12.141 35.2285 13.1026C35.1724 14.0642 32.9273 14.8562 30.1209 14.8562Z" fill="white"/>
<path d="M26.1356 9.48237C23.7221 10.8965 21.3086 11.3491 20.8596 10.5571C20.3544 9.70863 21.9821 7.89849 24.3956 6.48432C26.8091 5.07015 29.2226 4.61762 29.6716 5.40956C30.1206 6.20149 28.549 8.01163 26.1356 9.48237Z" fill="white"/>
</svg>
