<svg id="SvgjsSvg1001" width="288" height="288" xmlns="http://www.w3.org/2000/svg" version="1.1" xmlns:xlink="http://www.w3.org/1999/xlink" xmlns:svgjs="http://svgjs.com/svgjs">
	<defs id="SvgjsDefs1002">
	</defs>
	<g id="SvgjsG1008" transform="matrix(0.9167,0,0,0.9167,11.994830440139765,12.142619271278392)">
		<svg xmlns="http://www.w3.org/2000/svg" xmlns:xlink="http://www.w3.org/1999/xlink" width="288" height="288" viewBox="0 0 32 32">
			<defs>
				<linearGradient id="a">
					<stop offset="0" stop-color="#202956">
					</stop>
					<stop offset="1" stop-color="#283e79">
					</stop>
				</linearGradient>
				<linearGradient id="b" x1="1.998" x2="28" y1="16.197" y2="16.197" gradientUnits="userSpaceOnUse" xlink:href="#a">
				</linearGradient>
			</defs>
			<path fill="url(#b)" d="M 15.960938 2.3964844 C 15.133099 2.4302515 14.317886 2.7665375 13.691406 3.3925781 C 13.603604 3.4014858 13.514553 3.4023 13.427734 3.4179688 C 12.700862 3.5490583 12.022689 3.9232874 11.501953 4.5019531 A 0.50005 0.50005 0 0 0 11.267578 4.9179688 A 0.50005 0.50005 0 0 0 11.267578 4.9296875 A 0.50005 0.50005 0 0 0 11.267578 4.9414062 A 0.50005 0.50005 0 0 0 11.464844 5.3398438 C 12.157025 6.070249 12.624844 7.0079187 12.84375 8 L 12.464844 8 A 0.50004994 0.50004994 0 1 0 12.464844 9 A 0.50004994 0.50004994 0 1 0 12.464844 10 A 0.50004994 0.50004994 0 0 0 12.332031 10.982422 C 12.115723 11.406013 11.862002 11.796062 11.548828 12.169922 C 10.716512 13.163622 9.5481246 14.130044 8.4707031 15.777344 C 6.2601991 19.157044 6.474684 24.400984 9.5683594 27.396484 C 12.476444 30.363684 17.383029 30.847512 20.835938 28.570312 C 24.415332 26.345712 25.957266 21.538112 24.384766 17.632812 C 23.422926 14.983913 21.1392 13.337719 19.839844 11.636719 C 19.655149 11.394948 19.497007 11.152329 19.355469 10.910156 A 0.50004994 0.50004994 0 0 0 19.0625 10 A 0.50004994 0.50004994 0 1 0 19.0625 9 A 0.50004994 0.50004994 0 1 0 19.0625 8 L 18.9375 8 C 19.141235 7.2175928 19.579877 6.3187724 20.408203 5.234375 A 0.50020889 0.50020889 0 0 0 20.460938 5.1484375 A 0.50146332 0.49897524 60.000619 0 0 20.644531 4.375 C 20.219484 3.8446 19.655303 3.4647188 19.037109 3.2617188 C 18.754687 3.1690221 18.460706 3.1181484 18.162109 3.1015625 C 17.511985 2.6052809 16.733662 2.3645018 15.960938 2.3964844 z M 16.001953 3.3886719 C 16.258321 3.3779712 16.514077 3.4158908 16.763672 3.4882812 A 0.50188451 0.49939434 60.000619 0 0 16.761719 3.4902344 A 0.50188451 0.49939434 60.000619 0 0 17.355469 4.1777344 C 17.542987 4.1269841 17.733485 4.1046616 17.921875 4.0996094 A 0.50005 0.50005 0 0 0 18.095703 4.1015625 C 18.636174 4.1264419 19.155076 4.3309567 19.568359 4.6933594 C 18.642409 5.9195835 18.103144 7.0075574 17.892578 8 L 13.871094 8 C 13.662834 6.8870707 13.172467 5.8365647 12.443359 4.9628906 C 13.213385 4.2831337 14.329853 4.1585921 15.240234 4.6894531 A 0.50005 0.50005 0 1 0 15.744141 3.8261719 C 15.566479 3.7225885 15.382977 3.6367669 15.195312 3.5683594 C 15.454172 3.4621444 15.726758 3.4001584 16.001953 3.3886719 z M 22.964844 8.5273438 L 22.964844 8.5292969 C 22.31624 8.5562969 21.681103 8.8183812 21.185547 9.3007812 C 21.128417 9.3107812 21.070424 9.3104062 21.013672 9.3164062 C 20.85197 9.3454062 20.696364 9.4014375 20.542969 9.4609375 C 20.544569 9.4759375 20.554748 9.4889063 20.554688 9.5039062 C 20.554019 9.6744062 20.432613 9.8304469 20.373047 9.9980469 C 20.436637 10.178047 20.56092 10.34915 20.556641 10.53125 C 20.556304 10.54725 20.547675 10.562125 20.546875 10.578125 C 21.083064 10.214425 21.77525 10.162859 22.359375 10.505859 A 0.50029497 0.50029497 0 1 0 22.865234 9.6425781 C 22.812384 9.6115781 22.757259 9.5875469 22.703125 9.5605469 C 22.94551 9.5055469 23.195767 9.5105469 23.439453 9.5605469 A 0.50230641 0.49825859 60.001624 0 0 24.070312 10.121094 C 24.600251 9.9767938 25.145394 10.104094 25.566406 10.433594 C 24.876867 11.373594 24.475702 12.218341 24.326172 12.994141 L 22.431641 12.994141 C 22.734895 13.313541 23.030764 13.631341 23.335938 13.994141 C 23.600319 14.308441 23.856833 14.640341 24.103516 14.994141 L 24.501953 14.994141 C 24.680855 15.459241 24.936529 15.888203 25.236328 16.283203 C 26.35425 17.755803 27.967746 18.947516 28.585938 20.666016 C 28.587737 20.676016 28.589697 20.677594 28.591797 20.683594 C 29.629857 23.266694 28.577527 26.56555 26.228516 28.03125 L 26.214844 28.041016 C 25.016304 28.837716 23.524357 29.10595 22.099609 28.90625 C 21.866279 29.08445 21.623012 29.252956 21.371094 29.410156 C 21.219064 29.510156 21.060713 29.5972 20.904297 29.6875 C 22.849507 30.2672 25.036887 30.018447 26.763672 28.873047 C 29.552662 27.127647 30.746331 23.377459 29.521484 20.318359 C 28.769892 18.242259 27.007789 16.965987 26.03125 15.679688 C 25.844206 15.433288 25.696717 15.191966 25.572266 14.947266 C 26.005444 14.751766 25.929192 13.985841 25.341797 13.994141 A 0.50004994 0.50004994 0 1 0 25.355469 12.994141 C 25.503956 12.406941 25.832124 11.724125 26.464844 10.890625 C 26.472944 10.880625 26.471346 10.869375 26.478516 10.859375 A 0.50207713 0.49803115 60.001624 0 0 26.642578 10.091797 C 26.303095 9.6654969 25.853941 9.3605656 25.359375 9.1972656 C 25.146273 9.1272656 24.924148 9.0898187 24.699219 9.0742188 C 24.185072 8.6896187 23.572796 8.5020437 22.964844 8.5273438 z M 8.9667969 8.5292969 C 8.3181936 8.5562969 7.6812051 8.8183812 7.1855469 9.3007812 C 7.1282659 9.3107812 7.0704244 9.3104062 7.0136719 9.3164062 C 6.438074 9.4208062 5.9004173 9.7176281 5.4863281 10.173828 C 5.3489485 10.265828 5.2656274 10.418884 5.2636719 10.583984 L 5.2636719 10.59375 L 5.2636719 10.603516 C 5.2622619 10.757916 5.3321769 10.9042 5.453125 11 C 5.9665844 11.5483 6.3099099 12.255953 6.4707031 13.001953 L 6.2988281 13.001953 C 6.2819121 13.001053 6.2649629 13.001053 6.2480469 13.001953 C 5.6092248 13.046953 5.6369678 13.994153 6.2773438 14.001953 C 6.2675838 14.001653 6.2578109 14.001653 6.2480469 14.001953 C 5.6493942 14.034953 5.6034564 14.900494 6.1953125 14.996094 C 6.022543 15.403994 5.7928006 15.750903 5.5058594 16.095703 C 4.8791679 16.848603 3.9780434 17.600512 3.1445312 18.882812 C 1.4222351 21.532612 1.587413 25.612944 4 27.964844 C 5.8077098 29.819844 8.597166 30.431066 11.017578 29.697266 C 10.608091 29.465766 10.21531 29.202056 9.8398438 28.910156 C 7.9941068 29.166356 6.019065 28.609072 4.7109375 27.263672 L 4.7011719 27.253906 C 2.6962832 25.304306 2.5395401 21.647634 3.9824219 19.427734 C 4.7321192 18.274334 5.564484 17.588375 6.2753906 16.734375 C 6.6776698 16.251175 7.0114967 15.687153 7.2382812 15.001953 L 7.8007812 15.001953 C 8.0446701 14.645253 8.2896072 14.302253 8.5332031 14.001953 C 8.8333905 13.631853 9.1228354 13.304253 9.4042969 13.001953 L 7.5039062 13.001953 C 7.3539325 12.142953 6.9901568 11.326072 6.4472656 10.638672 C 6.9937107 10.211972 7.7403778 10.146666 8.359375 10.509766 C 8.9348644 10.846866 9.4406365 9.9837844 8.8652344 9.6464844 C 8.8103464 9.6144844 8.751558 9.5944063 8.6953125 9.5664062 C 8.934915 9.5104062 9.1824035 9.5134062 9.4238281 9.5664062 C 9.3631101 9.9364062 9.7146857 10.242306 10.070312 10.128906 C 10.411862 10.035906 10.75838 10.062781 11.076172 10.175781 C 11.103252 10.117781 11.131234 10.0593 11.152344 10 C 11.092734 9.8303 10.97198 9.6706469 10.972656 9.4980469 C 10.973141 9.3742469 11.033906 9.2570719 11.091797 9.1386719 C 10.964548 9.1106719 10.835055 9.0959844 10.705078 9.0839844 C 10.190085 8.6963844 9.5769831 8.5078031 8.9667969 8.5332031 L 8.9667969 8.5292969 z M 13.429688 11 L 18.285156 11 C 18.496248 11.435649 18.749614 11.853055 19.046875 12.242188 C 20.487756 14.128387 22.621291 15.691316 23.449219 17.978516 A 0.50005 0.50005 0 0 0 23.455078 17.996094 C 24.841326 21.424294 23.443678 25.778963 20.302734 27.726562 A 0.50005 0.50005 0 0 0 20.291016 27.736328 C 17.259728 29.738728 12.82559 29.299912 10.277344 26.695312 A 0.50005 0.50005 0 0 0 10.267578 26.685547 C 7.5827643 24.090847 7.3774947 19.277725 9.3066406 16.328125 C 10.299668 14.809925 11.399472 13.909153 12.316406 12.814453 C 12.7591 12.285982 13.145253 11.700003 13.429688 11 z M 14.203125 17.839844 C 13.81832 17.839844 13.433476 17.985594 13.142578 18.277344 C 12.560784 18.860744 12.560791 19.820797 13.142578 20.404297 C 13.72438 20.987797 14.681877 20.987797 15.263672 20.404297 C 15.845487 19.820797 15.845473 18.860744 15.263672 18.277344 C 14.972767 17.985594 14.58793 17.839844 14.203125 17.839844 z M 18.978516 17.841797 A 0.50004991 0.50004991 0 0 0 18.634766 17.994141 L 12.658203 23.988281 A 0.50004991 0.50004991 0 1 0 13.365234 24.695312 L 19.34375 18.699219 A 0.50004991 0.50004991 0 0 0 18.978516 17.841797 z M 14.203125 18.835938 C 14.330285 18.835938 14.456535 18.885928 14.556641 18.986328 C 14.756845 19.187128 14.756845 19.496466 14.556641 19.697266 C 14.356444 19.897966 14.049813 19.898066 13.849609 19.697266 C 13.649412 19.496466 13.649412 19.187128 13.849609 18.986328 C 13.949711 18.885928 14.075965 18.835938 14.203125 18.835938 z M 17.996094 21.845703 C 17.611291 21.845703 17.226448 21.991453 16.935547 22.283203 C 16.354841 22.866811 16.354135 23.827123 16.935547 24.410156 C 17.517349 24.993656 18.474832 24.992256 19.056641 24.410156 C 19.638442 23.826656 19.638442 22.866703 19.056641 22.283203 C 18.76574 21.991453 18.380897 21.845703 17.996094 21.845703 z M 17.996094 22.839844 C 18.123253 22.839844 18.25146 22.889834 18.351562 22.990234 C 18.551766 23.191034 18.551767 23.500372 18.351562 23.701172 C 18.151352 23.901972 17.840829 23.903372 17.640625 23.701172 C 17.440829 23.500773 17.443551 23.191071 17.642578 22.990234 C 17.74268 22.889834 17.868934 22.839844 17.996094 22.839844 z " color="#000" font-family="sans-serif" font-weight="400" overflow="visible" white-space="normal" style="line-height:normal;text-indent:0;text-align:start;text-decoration-line:none;text-decoration-style:solid;text-decoration-color:#000;text-transform:none;block-progression:tb;isolation:auto;mix-blend-mode:normal">
			</path>
		</svg>
	</g>
</svg>
