<svg width="495" height="148" viewBox="0 0 495 148" fill="none" xmlns="http://www.w3.org/2000/svg"><path d="M404.8 37.4h-15.7c-1 0-1.8.6-2.1 1.5l-17.4 47.5a1.8 1.8 0 0 1-3.6.2v-.2L348.6 39a2.3 2.3 0 0 0-2.1-1.5h-15.7a2.3 2.3 0 0 0-2.2 3.1l28.1 72.3c.6 1.5.6 3.1 0 4.6l-2.5 7.5c-2 5.6-9.2 5.1-13.4 3.4-1.2-.5-2.6.1-3 1.3l-4.2 11.7c-.4 1 0 2.2 1 2.8 4.3 2.3 8.4 3.2 11.8 3.2 9.6 0 20-2.7 25.3-16.4.6-1.2 5.9-15.2 5.9-15.2L407 40.5c.5-1.5-.5-3-2.2-3ZM245.5 100a2.2 2.2 0 0 0-2.6-1.5c-4.3.7-6.8-1.6-8.5-3.6a3251 3251 0 0 1-30.2-40.6l41-43.8c1.4-1.5.4-3.8-1.6-3.8h-19.8c-.6 0-1.3.3-1.7.7l-43 46c-1.4 1.6-4 .5-4-1.6V9c0-1.2-1-2.2-2.3-2.2h-15.4c-1.2 0-2.3 1-2.3 2.2v105.6c0 1.3 1 2.3 2.3 2.3h15.4c1.3 0 2.3-1 2.3-2.3V87.8a7 7 0 0 1 1.9-4.7L190.4 69c11.7 16.3 22.5 31.7 28.5 39.3 5 6.4 9.2 9.2 15.9 9.2 6.6 0 10.4-1.8 13.5-4.7.6-.5.8-1.5.6-2.3l-3.4-10.6Zm81.1-37.1a38.7 38.7 0 0 0-37-27.4 40.4 40.4 0 0 0-39.2 41 40.4 40.4 0 0 0 70.5 27.7c.9-1 .8-2.4-.2-3.3l-10.5-9.1c-1-1-2.6-.7-3.3.3l-.2.1c-3 3.5-9 7.2-17.1 7.2a21 21 0 0 1-18.2-12.1c-.8-1.5.3-3.3 2-3.3h50.8c2 0 3.6-1.5 3.8-3.4.2-2 .2-4.1.2-6.2V74c0-3.8-.6-7.4-1.6-11v-.2.1Zm-21.5 6.5h-31.8a2.3 2.3 0 0 1-2-3.3c3.3-7 10.3-12 18.4-12 9.3 0 15 6 17.5 12.1.6 1.5-.5 3.2-2 3.2Zm150.5-34.5a31 31 0 0 0-19.8 7 2.3 2.3 0 0 1-3.7-1.7v-.5c0-1.2-1-2.3-2.3-2.3h-13c-1.3 0-2.4 1-2.4 2.3v105.6c0 1.2 1 2.3 2.3 2.3h14.9c1.2 0 2.2-1 2.2-2.3v-32c0-1.9 2.1-3 3.6-1.9a31 31 0 0 0 18.3 6c23.7 0 39-18.6 39-41.4 0-22.8-15.7-41.1-39-41.1h-.1Zm-.7 63.2c-11.3 0-20.6-9.9-20.6-22.2 0-12.2 9.2-22.1 20.6-22.1 11.4 0 20.4 9.9 20.4 22.1 0 12.3-9.1 22.2-20.4 22.2Z" fill="#005285"/><path d="M95.6 9.7a62.2 62.2 0 1 0-66.8 105 62.2 62.2 0 0 0 66.8-105ZM84.3 76.2a26.2 26.2 0 1 1-44.2-28 26.2 26.2 0 0 1 44.2 28Z" fill="#005285"/><path d="M27.5 94.6c-1.3 0-2.5-.6-3.3-1.6a49.2 49.2 0 0 1 55.3-77c2.2.8 3.4 3.3 2.5 5.5a4.3 4.3 0 0 1-5.5 2.5 40.5 40.5 0 0 0-45.6 63.5 4.3 4.3 0 0 1-3.3 7h-.1Z" fill="#30B0FF"/><path d="M61.8 111.6a50.4 50.4 0 0 1-23.2-5.8 4.4 4.4 0 0 1-1.8-5.9c1.1-2 3.7-2.9 5.9-1.8a40.2 40.2 0 0 0 45-4.6 4.3 4.3 0 0 1 6 .6 4.3 4.3 0 0 1-.5 6A49 49 0 0 1 62 111.7h-.1Z" fill="#27A4F2"/><path d="M100.7 88.7c-.7 0-1.5-.3-2.2-.7a4.3 4.3 0 0 1-1.5-6c4-6.9 6-14.8 5.5-22.9a4.3 4.3 0 0 1 4-4.6 4.3 4.3 0 0 1 4.6 4 49 49 0 0 1-6.7 28 4.4 4.4 0 0 1-3.7 2v.2Z" fill="#1696E6"/><path d="M103 49.5c-1.6 0-3.2-1-4-2.7a35 35 0 0 0-1.6-3.7 4.3 4.3 0 0 1 1.9-5.8c2-1 4.7-.2 5.8 2a36 36 0 0 1 2 4.3 4.3 4.3 0 0 1-4 5.9Z" fill="#008CE3"/><path d="M91.4 32.8c-1.7 0-3.4-1-4-2.8l-.1-.3c-.7-2.4.5-4.8 2.8-5.5 2.3-.7 4.8.6 5.5 3 .7 2-.5 4.5-2.6 5.3a4 4 0 0 1-1.5.3Z" fill="#0078C2"/></svg>