<svg width="168" height="34" viewBox="0 0 168 34" fill="none" xmlns="http://www.w3.org/2000/svg">
<path d="M16.9511 0C13.5985 0 10.3212 0.994163 7.53357 2.85677C4.74598 4.71938 2.57332 7.36678 1.29033 10.4642C0.00734693 13.5616 -0.328344 16.9699 0.325717 20.2581C0.979778 23.5463 2.59421 26.5667 4.96486 28.9373C7.33551 31.308 10.3559 32.9224 13.6441 33.5764C16.9323 34.2305 20.3406 33.8948 23.438 32.6118C26.5354 31.3288 29.1828 29.1562 31.0454 26.3686C32.908 23.581 33.9022 20.3037 33.9022 16.9511C33.9015 12.4556 32.1154 8.14435 28.9366 4.96554C25.7578 1.78673 21.4466 0.000621571 16.9511 0ZM16.9511 29.495C14.4696 29.495 12.0438 28.7591 9.9805 27.3804C7.91722 26.0017 6.30913 24.0421 5.3596 21.7494C4.41007 19.4568 4.16176 16.934 4.64605 14.5002C5.13034 12.0664 6.32549 9.83088 8.08035 8.07634C9.83522 6.32181 12.071 5.12708 14.5049 4.64324C16.9388 4.1594 19.4615 4.4082 21.754 5.35815C24.0465 6.30811 26.0058 7.91656 27.3841 9.98009C28.7624 12.0436 29.4978 14.4696 29.4974 16.9511C29.4974 18.5986 29.1728 20.2299 28.5423 21.752C27.9117 23.274 26.9876 24.657 25.8225 25.8218C24.6574 26.9866 23.2743 27.9106 21.7522 28.5408C20.23 29.1711 18.5986 29.4953 16.9511 29.495Z" fill="#1A74EC"/>
<path d="M16.9511 26.7171C22.3447 26.7171 26.7171 22.3447 26.7171 16.9511C26.7171 11.5575 22.3447 7.18506 16.9511 7.18506C11.5575 7.18506 7.18506 11.5575 7.18506 16.9511C7.18506 22.3447 11.5575 26.7171 16.9511 26.7171Z" fill="#1A74EC"/>
<path d="M4.40476 16.9511C4.40476 18.5988 4.72938 20.2303 5.36007 21.7525C5.99075 23.2747 6.91515 24.6578 8.08046 25.8226C9.24577 26.9875 10.6292 27.9114 12.1516 28.5415C13.674 29.1716 15.3057 29.4956 16.9534 29.495V33.9022C12.4577 33.9022 8.14611 32.1162 4.96717 28.9373C1.78822 25.7584 0.00231934 21.4468 0.00231934 16.9511C0.00231934 12.4554 1.78822 8.1438 4.96717 4.96486C8.14611 1.78591 12.4577 0 16.9534 0V4.4048C15.3055 4.40418 13.6737 4.72826 12.1511 5.35853C10.6285 5.98879 9.24497 6.91288 8.07963 8.078C6.91429 9.24312 5.98994 10.6264 5.35939 12.1489C4.72885 13.6714 4.40445 15.3032 4.40476 16.9511Z" fill="#6396FF"/>
<path d="M16.951 7.18506V26.7171C19.5412 26.7171 22.0252 25.6882 23.8567 23.8567C25.6882 22.0252 26.7171 19.5412 26.7171 16.9511C26.7171 14.361 25.6882 11.877 23.8567 10.0455C22.0252 8.21398 19.5412 7.18506 16.951 7.18506Z" fill="#6396FF"/>
<path d="M47.7205 23.897C46.773 23.3992 45.9928 22.6337 45.4771 21.6958C44.9346 20.6843 44.6625 19.5498 44.6871 18.4022V10.2912C44.665 9.15283 44.9371 8.02805 45.4771 7.02567C45.9935 6.08893 46.7736 5.32438 47.7205 4.8268C48.7688 4.31616 49.9196 4.05078 51.0856 4.05078C52.2517 4.05078 53.4025 4.31616 54.4508 4.8268C55.3997 5.3265 56.1838 6.09018 56.7082 7.02567C57.2579 8.02498 57.5359 9.15091 57.5147 10.2912V18.4022C57.539 19.5517 57.2609 20.6875 56.7082 21.6958C56.1845 22.6325 55.4004 23.3971 54.4508 23.897C53.4025 24.4077 52.2517 24.6731 51.0856 24.6731C49.9196 24.6731 48.7688 24.4077 47.7205 23.897ZM53.3302 20.8918C53.9091 20.2516 54.2138 19.4099 54.1788 18.5475V10.2044C54.217 9.33313 53.9123 8.48153 53.3302 7.83209C53.0397 7.5291 52.6877 7.29166 52.298 7.13561C51.9083 6.97956 51.4898 6.90851 51.0704 6.92722C50.6581 6.90945 50.2468 6.98112 49.8648 7.13732C49.4828 7.29351 49.1392 7.53053 48.8574 7.83209C48.2824 8.48486 47.9832 9.3354 48.0229 10.2044V18.5475C47.9866 19.4076 48.2858 20.2481 48.8574 20.8918C49.1396 21.1928 49.4833 21.4295 49.8652 21.5856C50.2471 21.7418 50.6582 21.8138 51.0704 21.7966C51.4897 21.8147 51.9081 21.7434 52.2977 21.5874C52.6873 21.4314 53.0393 21.1942 53.3302 20.8918Z" fill="#1C293A"/>
<path d="M71.5566 17.108C71.5625 18.159 71.4762 19.2086 71.2987 20.2446C70.7048 23.1764 69.1498 24.6431 66.6337 24.6447C65.2897 24.6447 64.2832 24.2133 63.6143 23.3506C63.5745 23.292 63.537 23.2686 63.4995 23.278C63.462 23.2874 63.4409 23.3202 63.4409 23.3788V29.5042C63.4417 29.55 63.4333 29.5954 63.4159 29.6377C63.3986 29.6801 63.3728 29.7184 63.3401 29.7504C63.2781 29.8134 63.194 29.8496 63.1056 29.8512H60.4567C60.4112 29.8512 60.3662 29.8422 60.3243 29.8247C60.2823 29.8073 60.2442 29.7817 60.2122 29.7494C60.1801 29.7172 60.1548 29.6789 60.1376 29.6368C60.1204 29.5947 60.1118 29.5497 60.1121 29.5042V10.0612C60.1121 9.96985 60.1484 9.88221 60.213 9.81758C60.2776 9.75296 60.3653 9.71665 60.4567 9.71665H63.1033C63.1471 9.71695 63.1905 9.72603 63.2307 9.74334C63.271 9.76065 63.3074 9.78585 63.3377 9.81745C63.3694 9.84774 63.3947 9.88411 63.412 9.92439C63.4293 9.96467 63.4384 10.008 63.4385 10.0519V10.7997C63.4357 10.8225 63.4397 10.8456 63.4502 10.8661C63.4606 10.8866 63.477 10.9035 63.4971 10.9145C63.5346 10.9333 63.5721 10.9145 63.612 10.8559C64.3387 9.93701 65.3834 9.47754 66.7462 9.47754C67.9355 9.47754 68.899 9.84168 69.6366 10.57C70.3743 11.2982 70.9064 12.3922 71.2331 13.8519C71.456 14.9227 71.5645 16.0142 71.5566 17.108ZM68.1926 17.0799C68.2232 16.1126 68.1263 15.1455 67.9043 14.2035C67.5604 12.9532 66.8509 12.3281 65.7757 12.3281C64.7396 12.3281 64.0683 12.9423 63.762 14.1707C63.5391 15.122 63.4422 16.0986 63.4737 17.0752C63.4737 18.3598 63.5792 19.3374 63.7902 20.0078C64.1027 21.1783 64.7552 21.7636 65.7476 21.7636C66.74 21.7636 67.4393 21.1979 67.8457 20.0664C68.1061 19.0931 68.2237 18.087 68.1949 17.0799H68.1926Z" fill="#1C293A"/>
<path d="M85.078 16.7914L85.0499 18.0292C85.0566 18.0762 85.0523 18.1242 85.0372 18.1692C85.0221 18.2143 84.9967 18.2552 84.963 18.2886C84.9293 18.3221 84.8882 18.3472 84.843 18.362C84.7979 18.3768 84.7499 18.3808 84.7029 18.3738H76.9951C76.9757 18.371 76.9559 18.3729 76.9373 18.3791C76.9187 18.3853 76.9019 18.3958 76.888 18.4096C76.8741 18.4235 76.8637 18.4404 76.8574 18.459C76.8512 18.4776 76.8494 18.4974 76.8521 18.5168C76.8897 19.0536 76.9272 19.4545 76.967 19.6889C77.0399 20.2786 77.3259 20.8214 77.7711 21.215C78.2374 21.606 78.832 21.8106 79.4402 21.7893C79.9561 21.7887 80.4608 21.6389 80.8936 21.358C81.2955 21.078 81.6094 20.6893 81.7984 20.2374C81.8102 20.193 81.8309 20.1514 81.8593 20.1153C81.8877 20.0791 81.9232 20.0492 81.9636 20.0272C82.004 20.0053 82.0484 19.9918 82.0942 19.9876C82.14 19.9835 82.1861 19.9887 82.2298 20.003L84.5881 20.493C84.8225 20.5703 84.8952 20.7133 84.8225 20.9243C84.494 22.0362 83.7992 23.0044 82.851 23.6717C81.8414 24.3368 80.6509 24.6733 79.4425 24.6352C77.8516 24.6352 76.5763 24.2515 75.6167 23.4842C74.6305 22.6779 73.9653 21.5454 73.7414 20.2914C73.6421 19.7492 73.5794 19.201 73.5538 18.6504C73.5257 18.0737 73.5093 17.3072 73.5093 16.3484C73.493 15.5884 73.5417 14.8285 73.6546 14.0768C73.7955 12.7714 74.4345 11.5706 75.4386 10.7246C76.4356 9.89003 77.7007 9.47354 79.2339 9.4751C80.903 9.4751 82.2501 9.94395 83.2753 10.8816C84.3005 11.8193 84.8709 13.0563 84.9866 14.5925C85.0499 15.2396 85.078 15.9663 85.078 16.7914ZM77.7008 12.9235C77.2753 13.3201 77.0052 13.8553 76.9389 14.4331C76.8773 14.9096 76.8483 15.3897 76.8521 15.8701C76.849 15.8897 76.8505 15.9098 76.8565 15.9287C76.8626 15.9476 76.873 15.9648 76.8869 15.979C76.9008 15.9931 76.9179 16.0038 76.9367 16.0101C76.9555 16.0165 76.9755 16.0183 76.9951 16.0155H81.5687C81.5884 16.0183 81.6084 16.0165 81.6272 16.0101C81.646 16.0038 81.663 15.9931 81.677 15.979C81.6909 15.9648 81.7013 15.9476 81.7073 15.9287C81.7133 15.9098 81.7149 15.8897 81.7117 15.8701C81.6742 15.2185 81.6359 14.7496 81.5968 14.4636C81.5453 13.8805 81.2788 13.3374 80.849 12.9399C80.408 12.5714 79.8522 12.3683 79.2774 12.3658C78.7027 12.3632 78.1451 12.5613 77.7008 12.9258V12.9235Z" fill="#1C293A"/>
<path d="M97.24 10.8094C98.0214 11.6908 98.4121 12.9083 98.4121 14.4617V24.073C98.4124 24.1185 98.4037 24.1635 98.3865 24.2056C98.3693 24.2477 98.344 24.286 98.312 24.3182C98.28 24.3505 98.2419 24.3761 98.1999 24.3935C98.1579 24.411 98.1129 24.42 98.0675 24.42H95.4208C95.3752 24.4203 95.3299 24.4115 95.2877 24.3942C95.2455 24.3769 95.2071 24.3513 95.1748 24.3191C95.1425 24.2868 95.117 24.2484 95.0997 24.2062C95.0823 24.1639 95.0736 24.1187 95.0739 24.073V14.9329C95.1129 14.257 94.9036 13.5901 94.4855 13.0575C94.29 12.827 94.0448 12.644 93.7682 12.5221C93.4917 12.4003 93.1911 12.3429 92.8891 12.3543C92.5806 12.3428 92.2733 12.3999 91.9896 12.5215C91.7058 12.6431 91.4526 12.8262 91.2481 13.0575C90.8175 13.5849 90.5971 14.2528 90.6292 14.9329V24.0754C90.6296 24.121 90.6208 24.1663 90.6035 24.2085C90.5861 24.2507 90.5606 24.2891 90.5283 24.3214C90.496 24.3537 90.4577 24.3792 90.4154 24.3965C90.3732 24.4139 90.3279 24.4226 90.2823 24.4223H87.6333C87.5876 24.4229 87.5423 24.4143 87.5 24.397C87.4577 24.3797 87.4193 24.354 87.3872 24.3215C87.324 24.2597 87.2878 24.1755 87.2864 24.0871V10.0616C87.2865 10.0178 87.2956 9.9744 87.3129 9.93412C87.3302 9.89383 87.3555 9.85746 87.3872 9.82718C87.419 9.79424 87.4573 9.76828 87.4997 9.75093C87.542 9.73358 87.5876 9.72521 87.6333 9.72638H90.2776C90.3231 9.72607 90.3681 9.73475 90.4102 9.75193C90.4523 9.76911 90.4906 9.79445 90.5228 9.82648C90.5551 9.85851 90.5806 9.8966 90.5981 9.93856C90.6156 9.98053 90.6246 10.0255 90.6246 10.071V10.8188C90.6218 10.8413 90.6256 10.8642 90.6356 10.8846C90.6456 10.905 90.6613 10.922 90.6808 10.9337C90.7183 10.9524 90.7582 10.9337 90.7957 10.8751C91.5615 9.95612 92.6164 9.49665 93.9604 9.49665C95.3591 9.4904 96.4523 9.92798 97.24 10.8094Z" fill="#1C293A"/>
<path d="M106.411 24.3094C106.347 24.2476 106.311 24.1634 106.31 24.075V4.61794C106.31 4.57409 106.319 4.53073 106.336 4.49045C106.354 4.45016 106.379 4.4138 106.411 4.38351C106.441 4.35191 106.477 4.32671 106.518 4.3094C106.558 4.29209 106.601 4.28301 106.645 4.28271H112.599C114.457 4.28271 115.948 4.80001 117.072 5.83459C118.196 6.86917 118.757 8.24992 118.755 9.97683V18.7208C118.755 20.4399 118.194 21.8206 117.072 22.863C115.95 23.9054 114.459 24.4235 112.599 24.4172H106.645C106.556 24.4138 106.471 24.375 106.411 24.3094ZM109.791 21.5338L112.637 21.5034C113.01 21.5184 113.382 21.45 113.725 21.3032C114.069 21.1564 114.375 20.9349 114.622 20.6548C115.121 20.0906 115.39 19.3193 115.429 18.341V10.3496C115.429 9.36968 115.174 8.59296 114.665 8.01941C114.412 7.73395 114.099 7.5084 113.748 7.35917C113.397 7.20994 113.018 7.14078 112.637 7.15673H109.791C109.771 7.15359 109.751 7.1551 109.732 7.16113C109.713 7.16717 109.696 7.17757 109.682 7.19149C109.668 7.20541 109.657 7.22245 109.651 7.24125C109.645 7.26005 109.643 7.28009 109.646 7.29973V21.3932C109.643 21.4129 109.645 21.433 109.651 21.4519C109.657 21.4708 109.668 21.4879 109.682 21.502C109.696 21.5161 109.713 21.5267 109.732 21.533C109.751 21.5394 109.771 21.5413 109.791 21.5385V21.5338Z" fill="#1C293A"/>
<path d="M122.844 23.393C121.833 22.5365 121.185 21.3283 121.031 20.0126C120.871 19.0339 120.793 18.0435 120.797 17.0518C120.791 16.0398 120.87 15.0291 121.031 14.0301C121.19 12.7272 121.85 11.5374 122.872 10.713C123.886 9.89726 125.161 9.49014 126.697 9.4917C128.234 9.49327 129.489 9.90039 130.465 10.713C131.466 11.5355 132.114 12.7097 132.277 13.995C132.573 15.9774 132.583 17.9921 132.307 19.9774C132.093 21.4168 131.489 22.5529 130.495 23.3859C129.501 24.2189 128.226 24.6362 126.669 24.6377C125.116 24.6424 123.841 24.2275 122.844 23.393ZM128.266 21.1355C128.711 20.6848 128.989 20.0962 129.056 19.4664C129.133 18.4701 129.171 17.6637 129.171 17.0518C129.171 16.44 129.133 15.6031 129.056 14.6068C128.993 13.984 128.714 13.403 128.266 12.9658C127.833 12.5633 127.26 12.3469 126.669 12.3634C126.374 12.3521 126.08 12.3995 125.804 12.5029C125.527 12.6063 125.274 12.7637 125.059 12.9658C124.617 13.406 124.342 13.9861 124.281 14.6068C124.197 15.419 124.158 16.2353 124.166 17.0518C124.157 17.8582 124.195 18.6645 124.281 19.4664C124.345 20.0943 124.619 20.6822 125.059 21.1355C125.27 21.3456 125.521 21.5103 125.798 21.6192C126.075 21.728 126.372 21.7788 126.669 21.7684C126.964 21.7754 127.258 21.723 127.532 21.6142C127.806 21.5055 128.056 21.3427 128.266 21.1355Z" fill="#1C293A"/>
<path d="M134.851 24.3095C134.787 24.2477 134.751 24.1635 134.75 24.0751V4.61804C134.75 4.52664 134.786 4.43899 134.851 4.37437C134.915 4.30974 135.003 4.27344 135.094 4.27344H137.741C137.785 4.27374 137.828 4.28281 137.868 4.30012C137.909 4.31743 137.945 4.34263 137.975 4.37424C138.007 4.40452 138.032 4.44089 138.05 4.48118C138.067 4.52146 138.076 4.56481 138.076 4.60866V24.0751C138.075 24.1635 138.039 24.2477 137.975 24.3095C137.913 24.3725 137.829 24.4087 137.741 24.4103H135.085C134.997 24.4089 134.912 24.3727 134.851 24.3095Z" fill="#1C293A"/>
<path d="M140.774 24.3095C140.711 24.2477 140.675 24.1635 140.674 24.0751V4.61804C140.674 4.52664 140.71 4.43899 140.775 4.37437C140.839 4.30974 140.927 4.27344 141.018 4.27344H143.665C143.709 4.27374 143.752 4.28281 143.792 4.30012C143.833 4.31743 143.869 4.34263 143.899 4.37424C143.931 4.40452 143.956 4.44089 143.974 4.48118C143.991 4.52146 144 4.56481 144 4.60866V24.0751C143.999 24.1635 143.962 24.2477 143.899 24.3095C143.837 24.3725 143.753 24.4087 143.665 24.4103H141.018C140.973 24.4109 140.928 24.4022 140.886 24.3849C140.844 24.3676 140.806 24.3419 140.774 24.3095Z" fill="#1C293A"/>
<path d="M154.835 10.1036C155.638 10.4812 156.32 11.0735 156.807 11.8149C157.281 12.5627 157.525 13.4332 157.51 14.3185V24.0752C157.51 24.1206 157.501 24.1657 157.484 24.2078C157.467 24.2498 157.442 24.2881 157.41 24.3204C157.378 24.3526 157.34 24.3782 157.298 24.3957C157.256 24.4131 157.211 24.4221 157.165 24.4221H154.519C154.43 24.4205 154.346 24.3843 154.284 24.3213C154.221 24.2595 154.185 24.1753 154.183 24.0869V23.3696C154.186 23.347 154.183 23.324 154.173 23.3036C154.163 23.2831 154.147 23.2661 154.127 23.2547C154.108 23.2455 154.086 23.2432 154.065 23.2484C154.044 23.2535 154.025 23.2657 154.012 23.2828C153.206 24.2018 152.045 24.662 150.531 24.6636C149.372 24.6985 148.237 24.3381 147.31 23.6415C146.427 22.9617 145.986 21.8544 145.986 20.3197C145.986 18.71 146.499 17.5114 147.526 16.7237C148.553 15.936 149.967 15.5453 151.769 15.5516H154.04C154.06 15.5543 154.08 15.5525 154.098 15.5463C154.117 15.5401 154.134 15.5296 154.148 15.5157C154.161 15.5019 154.172 15.485 154.178 15.4664C154.184 15.4478 154.186 15.428 154.183 15.4086V14.6889C154.217 14.0723 154.005 13.4674 153.595 13.0058C153.384 12.7882 153.13 12.6177 152.849 12.5054C152.568 12.3931 152.266 12.3415 151.963 12.3541C151.478 12.3336 150.999 12.4692 150.597 12.7409C150.247 12.9934 150.006 13.3685 149.922 13.7911C149.905 13.8842 149.855 13.9679 149.78 14.0263C149.706 14.0847 149.613 14.1136 149.518 14.1075L146.729 13.9341C146.685 13.9338 146.642 13.9247 146.601 13.9074C146.561 13.8901 146.525 13.8649 146.494 13.8333C146.463 13.8077 146.44 13.7739 146.427 13.7358C146.414 13.6977 146.412 13.6567 146.422 13.6176C146.472 13.0244 146.651 12.4493 146.946 11.9326C147.242 11.4159 147.647 10.9701 148.133 10.6264C149.16 9.86059 150.43 9.47769 151.945 9.47769C152.943 9.46373 153.932 9.67781 154.835 10.1036ZM153.339 21.2926C153.606 21.0955 153.821 20.837 153.966 20.5391C154.111 20.2412 154.183 19.9126 154.174 19.5813V18.0857C154.177 18.0663 154.175 18.0465 154.169 18.0279C154.162 18.0093 154.152 17.9924 154.138 17.9785C154.124 17.9647 154.107 17.9542 154.089 17.948C154.07 17.9418 154.05 17.94 154.031 17.9427H152.104C151.26 17.9427 150.592 18.1255 150.104 18.4889C149.861 18.6719 149.667 18.9121 149.539 19.1881C149.411 19.4642 149.353 19.7675 149.371 20.0712C149.351 20.3328 149.391 20.5954 149.489 20.8391C149.586 21.0828 149.737 21.3012 149.931 21.4778C150.343 21.8047 150.859 21.9713 151.384 21.9466C152.092 21.9583 152.782 21.7275 153.339 21.2926Z" fill="#1C293A"/>
<path d="M167.808 9.88779C167.883 9.92738 167.942 9.99252 167.974 10.0715C168.006 10.1506 168.008 10.2383 167.981 10.3191L167.492 12.9376C167.473 13.172 167.337 13.2353 167.088 13.1392C166.812 13.038 166.52 12.9887 166.226 12.9939C166.024 13.0009 165.823 13.0205 165.623 13.0525C165.305 13.0785 164.995 13.1712 164.715 13.3247C164.435 13.4782 164.19 13.6889 163.996 13.9433C163.552 14.5186 163.324 15.2308 163.349 15.957V24.075C163.35 24.1205 163.341 24.1655 163.324 24.2076C163.307 24.2497 163.281 24.288 163.249 24.3202C163.217 24.3525 163.179 24.3781 163.137 24.3955C163.095 24.413 163.05 24.422 163.005 24.422H160.358C160.313 24.422 160.268 24.413 160.226 24.3955C160.184 24.3781 160.146 24.3525 160.114 24.3202C160.082 24.288 160.056 24.2497 160.039 24.2076C160.022 24.1655 160.013 24.1205 160.013 24.075V10.0613C160.013 9.96987 160.05 9.88222 160.114 9.8176C160.179 9.75297 160.267 9.71667 160.358 9.71667H163.005C163.096 9.71667 163.184 9.75297 163.248 9.8176C163.313 9.88222 163.349 9.96987 163.349 10.0613V11.299C163.349 11.374 163.363 11.4186 163.394 11.4279C163.424 11.4373 163.455 11.4139 163.495 11.3553C164.184 10.1488 165.152 9.54476 166.399 9.5432C166.891 9.53206 167.377 9.65092 167.808 9.88779Z" fill="#1C293A"/>
</svg>
