<svg xmlns="http://www.w3.org/2000/svg" width="128" height="128" enable-background="new 0 0 64 64" viewBox="0 0 64 64"><path fill="#283e79" d="M56.878,47.521l-24-44c-0.351-0.643-1.405-0.643-1.756,0l-24,44c-0.398,0.731,0.258,1.621,1.074,1.459l19.134-3.827
			l3.721,11.163c0.292,0.876,1.605,0.876,1.897,0l3.721-11.163l19.134,3.827C56.619,49.143,57.276,48.251,56.878,47.521z
			 M36.196,43.02c-0.495-0.099-0.986,0.186-1.145,0.664L33,49.838V42c0-1.29-2-1.29-2,0v7.838l-2.051-6.154
			c-0.158-0.473-0.657-0.762-1.145-0.664L9.903,46.6L32,6.088L54.097,46.6L36.196,43.02z"/><path fill="#283e79" d="M31.01,11.858l-4,28c-0.183,1.277,1.797,1.558,1.979,0.283L32,19.071l3.01,21.07c0.183,1.276,2.163,0.999,1.979-0.283
			l-4-28C32.831,10.746,31.169,10.746,31.01,11.858z"/></svg>