<svg id="SvgjsSvg1016" width="288" height="288" xmlns="http://www.w3.org/2000/svg" version="1.1" xmlns:xlink="http://www.w3.org/1999/xlink" xmlns:svgjs="http://svgjs.com/svgjs">
	<defs id="SvgjsDefs1017">
	</defs>
	<g id="SvgjsG1018" transform="matrix(0.9167,0,0,0.9167,11.997050182533258,11.993718900680534)">
		<svg xmlns="http://www.w3.org/2000/svg" xmlns:xlink="http://www.w3.org/1999/xlink" width="288" height="288" viewBox="0 0 32 32">
			<defs>
				<linearGradient id="a">
					<stop offset="0" stop-color="#202956">
					</stop>
					<stop offset="1" stop-color="#283e79">
					</stop>
				</linearGradient>
				<linearGradient id="b" x1=".998" x2="29" y1="15.998" y2="15.998" gradientUnits="userSpaceOnUse" xlink:href="#a">
				</linearGradient>
			</defs>
			<path fill="url(#b)" d="M 9.5 1 C 8.6776435 1 8 1.6777 8 2.5 L 8 6.5 C 8 7.3224 8.6776435 8 9.5 8 L 26.5 8 C 27.322356 8 28 7.3224 28 6.5 L 28 4.5859375 C 28.0033 4.5748146 28.012393 4.5401585 28.041016 4.5 C 28.100886 4.412 28.206742 4.283925 28.337891 4.140625 C 28.600187 3.854125 28.967186 3.5026688 29.335938 3.1679688 C 30.073438 2.4985688 30.816406 1.8925781 30.816406 1.8925781 A 0.50005 0.50005 0 0 0 30.5 1 L 9.5 1 z M 9.5 2 L 29.15625 2 C 28.935993 2.19 28.910874 2.1997281 28.664062 2.4238281 C 28.282818 2.7698281 27.89981 3.1329375 27.599609 3.4609375 C 27.449509 3.6248375 27.320991 3.7773875 27.216797 3.9296875 C 27.112603 4.0819875 27 4.2051 27 4.5 L 27 6.5 C 27 6.7857 26.785662 7 26.5 7 L 9.5 7 C 9.2143365 7 9 6.7857 9 6.5 L 9 2.5 C 9 2.2144 9.2143365 2 9.5 2 z M 15.5 4 A 0.5 0.5 0 0 0 15 4.5 A 0.5 0.5 0 0 0 15.5 5 A 0.5 0.5 0 0 0 16 4.5 A 0.5 0.5 0 0 0 15.5 4 z M 17.5 4 A 0.5 0.5 0 0 0 17 4.5 A 0.5 0.5 0 0 0 17.5 5 A 0.5 0.5 0 0 0 18 4.5 A 0.5 0.5 0 0 0 17.5 4 z M 19.5 4 A 0.5 0.5 0 0 0 19 4.5 A 0.5 0.5 0 0 0 19.5 5 A 0.5 0.5 0 0 0 20 4.5 A 0.5 0.5 0 0 0 19.5 4 z M 1.5 8.9960938 L 1.5 9 A 0.50005 0.50005 0 0 0 1.1835938 9.8886719 C 1.1835938 9.8886719 1.9265621 10.494663 2.6640625 11.164062 C 3.0328127 11.498763 3.3998128 11.850219 3.6621094 12.136719 C 3.7932577 12.280019 3.8991168 12.408594 3.9589844 12.496094 C 3.9876285 12.53772 3.9967101 12.572717 4 12.583984 L 4 14.496094 C 4 15.318494 4.677644 15.996094 5.5 15.996094 L 22.5 15.996094 C 23.322357 15.996094 24 15.318494 24 14.496094 L 24 10.496094 C 24 9.6737937 23.322357 8.9960938 22.5 8.9960938 L 1.5 8.9960938 z M 2.84375 10 L 22.5 10 C 22.785663 10 23 10.2144 23 10.5 L 23 14.5 C 23 14.7857 22.785663 15 22.5 15 L 5.5 15 C 5.214338 15 5 14.7857 5 14.5 L 5 12.5 C 5 12.2051 4.8873971 12.081988 4.7832031 11.929688 C 4.6790091 11.777388 4.5504907 11.624838 4.4003906 11.460938 C 4.1001904 11.132938 3.7171831 10.769828 3.3359375 10.423828 C 3.0891267 10.199728 3.0640067 10.19 2.84375 10 z M 11.5 12 A 0.5 0.5 0 0 0 11 12.5 A 0.5 0.5 0 0 0 11.5 13 A 0.5 0.5 0 0 0 12 12.5 A 0.5 0.5 0 0 0 11.5 12 z M 13.5 12 A 0.5 0.5 0 0 0 13 12.5 A 0.5 0.5 0 0 0 13.5 13 A 0.5 0.5 0 0 0 14 12.5 A 0.5 0.5 0 0 0 13.5 12 z M 15.5 12 A 0.5 0.5 0 0 0 15 12.5 A 0.5 0.5 0 0 0 15.5 13 A 0.5 0.5 0 0 0 16 12.5 A 0.5 0.5 0 0 0 15.5 12 z M 17.5 17 C 16.677643 17 16 17.6777 16 18.5 L 16 21.5 C 16 22.3224 16.677643 23 17.5 23 L 26.5 23 C 27.322356 23 28 22.3224 28 21.5 L 28 20.585938 C 28.0033 20.574815 28.012393 20.540158 28.041016 20.5 C 28.100886 20.412 28.206742 20.283925 28.337891 20.140625 C 28.600187 19.854125 28.967186 19.502669 29.335938 19.167969 C 30.073438 18.498569 30.816406 17.892578 30.816406 17.892578 A 0.50005 0.50005 0 0 0 30.5 17 L 17.5 17 z M 17.5 18 L 29.15625 18 C 28.935993 18.19 28.910874 18.199728 28.664062 18.423828 C 28.282818 18.769828 27.89981 19.132938 27.599609 19.460938 C 27.449509 19.624838 27.320991 19.777388 27.216797 19.929688 C 27.112603 20.081987 27 20.2051 27 20.5 L 27 21.5 C 27 21.7857 26.785662 22 26.5 22 L 17.5 22 C 17.214335 22 17 21.7857 17 21.5 L 17 18.5 C 17 18.2144 17.214337 18 17.5 18 z M 20 19.5 A 0.5 0.5 0 0 0 19.5 20 A 0.5 0.5 0 0 0 20 20.5 A 0.5 0.5 0 0 0 20.5 20 A 0.5 0.5 0 0 0 20 19.5 z M 22 19.5 A 0.5 0.5 0 0 0 21.5 20 A 0.5 0.5 0 0 0 22 20.5 A 0.5 0.5 0 0 0 22.5 20 A 0.5 0.5 0 0 0 22 19.5 z M 24 19.5 A 0.5 0.5 0 0 0 23.5 20 A 0.5 0.5 0 0 0 24 20.5 A 0.5 0.5 0 0 0 24.5 20 A 0.5 0.5 0 0 0 24 19.5 z M 1.5 23.996094 L 1.5 24 A 0.50005 0.50005 0 0 0 1.1835938 24.888672 C 1.1835938 24.888672 1.9265621 25.494663 2.6640625 26.164062 C 3.0328127 26.498763 3.3998128 26.850219 3.6621094 27.136719 C 3.7932577 27.280019 3.8991168 27.408594 3.9589844 27.496094 C 3.9876285 27.53772 3.9967101 27.572717 4 27.583984 L 4 29.496094 C 4 30.318494 4.677644 30.996094 5.5 30.996094 L 18.5 30.996094 C 19.322357 30.996094 20 30.318494 20 29.496094 L 20 25.496094 C 20 24.673794 19.322357 23.996094 18.5 23.996094 L 1.5 23.996094 z M 2.84375 25 L 18.5 25 C 18.785663 25 19 25.2144 19 25.5 L 19 29.5 C 19 29.7857 18.785663 30 18.5 30 L 5.5 30 C 5.214338 30 5 29.7857 5 29.5 L 5 27.5 C 5 27.2051 4.8873971 27.081988 4.7832031 26.929688 C 4.6790091 26.777388 4.5504907 26.624838 4.4003906 26.460938 C 4.1001904 26.132938 3.7171831 25.769828 3.3359375 25.423828 C 3.0891267 25.199728 3.0640067 25.19 2.84375 25 z M 10.5 27 A 0.5 0.5 0 0 0 10 27.5 A 0.5 0.5 0 0 0 10.5 28 A 0.5 0.5 0 0 0 11 27.5 A 0.5 0.5 0 0 0 10.5 27 z M 12.5 27 A 0.5 0.5 0 0 0 12 27.5 A 0.5 0.5 0 0 0 12.5 28 A 0.5 0.5 0 0 0 13 27.5 A 0.5 0.5 0 0 0 12.5 27 z M 14.5 27 A 0.5 0.5 0 0 0 14 27.5 A 0.5 0.5 0 0 0 14.5 28 A 0.5 0.5 0 0 0 15 27.5 A 0.5 0.5 0 0 0 14.5 27 z " color="#000" font-family="sans-serif" font-weight="400" overflow="visible" white-space="normal" style="line-height:normal;text-indent:0;text-align:start;text-decoration-line:none;text-decoration-style:solid;text-decoration-color:#000;text-transform:none;block-progression:tb;isolation:auto;mix-blend-mode:normal">
			</path>
		</svg>
	</g>
</svg>
