<svg id="SvgjsSvg1001" width="288" height="288" xmlns="http://www.w3.org/2000/svg" version="1.1" xmlns:xlink="http://www.w3.org/1999/xlink" xmlns:svgjs="http://svgjs.com/svgjs">
	<defs id="SvgjsDefs1002">
	</defs>
	<g id="SvgjsG1008" transform="matrix(0.9167,0,0,0.9167,11.995579013347623,11.995540325546273)">
		<svg xmlns="http://www.w3.org/2000/svg" xmlns:xlink="http://www.w3.org/1999/xlink" width="288" height="288" viewBox="0 0 32 32">
			<defs>
				<linearGradient id="a">
					<stop offset="0" stop-color="#202956">
					</stop>
					<stop offset="1" stop-color="#283e79">
					</stop>
				</linearGradient>
				<linearGradient id="b" x1="1.001" x2="29" y1="16" y2="16" gradientUnits="userSpaceOnUse" xlink:href="#a">
				</linearGradient>
			</defs>
			<path fill="url(#b)" fill-rule="evenodd" d="M 30.484375 1 A 0.50005006 0.50005006 0 0 0 30.40625 1.0097656 C 27.645759 1.0225749 25.103332 1.5936617 22.794922 2.5585938 A 0.50005006 0.50005006 0 0 0 22.755859 2.5742188 C 22.734364 2.5832557 22.710908 2.5885504 22.689453 2.5976562 A 0.50005006 0.50005006 0 0 0 22.570312 2.6699219 C 22.381156 2.7594741 22.173263 2.8665882 21.951172 2.9882812 A 0.50005006 0.50005006 0 0 0 21.912109 3.0058594 C 21.888108 3.0180297 21.865745 3.0326753 21.841797 3.0449219 C 21.745456 3.0982677 21.689518 3.1261488 21.597656 3.1777344 C 18.343196 4.8908919 15.598356 7.3035554 13.384766 10.011719 C 12.959353 9.8337857 12.522425 9.7002584 12.070312 9.6445312 L 12.070312 9.6464844 C 10.383631 9.4385844 8.5490078 10.048687 6.84375 11.242188 C 4.570073 12.833588 2.4653703 15.475194 1.0410156 18.808594 A 0.50005006 0.50005006 0 0 0 1.8066406 19.400391 C 3.870232 17.799791 5.4747364 16.936975 6.5976562 16.734375 C 7.1591163 16.633075 7.5872347 16.685369 7.9453125 16.855469 C 8.2540149 17.001855 8.5256208 17.252656 8.7734375 17.626953 C 8.7091649 17.776349 8.6296888 17.927229 8.5683594 18.076172 A 0.50005006 0.50005006 0 0 0 8.6777344 18.621094 L 9.7519531 19.695312 C 8.8192701 21.100819 7.8587301 22.700762 6.8203125 24.494141 C 6.8185425 24.494141 6.8162331 24.493906 6.8144531 24.503906 A 0.50005006 0.50005006 0 0 0 6.8027344 24.525391 A 0.50005006 0.50005006 0 0 0 6.796875 24.539062 A 0.50005006 0.50005006 0 0 0 6.7929688 24.548828 A 0.50005006 0.50005006 0 0 0 6.7773438 24.587891 A 0.50005006 0.50005006 0 0 0 6.7734375 24.597656 A 0.50005006 0.50005006 0 0 0 6.7636719 24.634766 A 0.50005006 0.50005006 0 0 0 6.7539062 24.683594 A 0.50005006 0.50005006 0 0 0 6.75 24.712891 A 0.50005006 0.50005006 0 0 0 6.7480469 24.732422 A 0.50005006 0.50005006 0 0 0 6.7480469 24.744141 A 0.50005006 0.50005006 0 0 0 6.75 24.794922 A 0.50005006 0.50005006 0 0 0 6.7539062 24.833984 A 0.50005006 0.50005006 0 0 0 6.7558594 24.84375 A 0.50005006 0.50005006 0 0 0 6.7675781 24.892578 A 0.50005006 0.50005006 0 0 0 6.7832031 24.9375 A 0.50005006 0.50005006 0 0 0 6.7988281 24.974609 A 0.50005006 0.50005006 0 0 0 6.8203125 25.015625 A 0.50005006 0.50005006 0 0 0 6.8222656 25.015625 A 0.50005006 0.50005006 0 0 0 6.828125 25.025391 A 0.50005006 0.50005006 0 0 0 6.8515625 25.056641 A 0.50005006 0.50005006 0 0 0 6.8574219 25.066406 A 0.50005006 0.50005006 0 0 0 6.8847656 25.097656 A 0.50005006 0.50005006 0 0 0 6.9101562 25.121094 A 0.50005006 0.50005006 0 0 0 6.9199219 25.132812 A 0.50005006 0.50005006 0 0 0 6.9277344 25.142578 A 0.50005006 0.50005006 0 0 0 6.9589844 25.166016 A 0.50005006 0.50005006 0 0 0 6.9667969 25.175781 A 0.50005006 0.50005006 0 0 0 7.0019531 25.199219 A 0.50005006 0.50005006 0 0 0 7.046875 25.222656 A 0.50005006 0.50005006 0 0 0 7.0703125 25.232422 A 0.50005006 0.50005006 0 0 0 7.0917969 25.242188 A 0.50005006 0.50005006 0 0 0 7.1015625 25.242188 A 0.50005006 0.50005006 0 0 0 7.140625 25.251953 A 0.50005006 0.50005006 0 0 0 7.1757812 25.261719 A 0.50005006 0.50005006 0 0 0 7.1992188 25.261719 A 0.50005006 0.50005006 0 0 0 7.2402344 25.261719 A 0.50005006 0.50005006 0 0 0 7.2480469 25.261719 A 0.50005006 0.50005006 0 0 0 7.3476562 25.251953 A 0.50005006 0.50005006 0 0 0 7.3945312 25.240234 A 0.50005006 0.50005006 0 0 0 7.4433594 25.222656 A 0.50005006 0.50005006 0 0 0 7.4980469 25.195312 C 7.5096609 25.185313 7.5176979 25.182781 7.5292969 25.175781 C 9.3133794 24.140456 10.907581 23.181904 12.308594 22.251953 L 13.345703 23.289062 A 0.50005006 0.50005006 0 0 0 13.890625 23.398438 C 14.036669 23.338302 14.185424 23.26023 14.332031 23.197266 C 15.136126 23.723842 15.422568 24.339179 15.244141 25.386719 C 15.051072 26.520319 14.201005 28.133212 12.601562 30.195312 A 0.50005006 0.50005006 0 0 0 13.193359 30.960938 C 16.526829 29.536537 19.168364 27.431903 20.759766 25.158203 C 22.278547 22.988353 22.833479 20.612461 21.980469 18.595703 C 24.672503 16.418759 27.080663 13.727644 28.794922 10.539062 C 28.864418 10.417364 28.90693 10.336594 28.982422 10.205078 C 29.139815 9.9308788 29.27749 9.6740154 29.390625 9.4355469 A 0.50005006 0.50005006 0 0 0 29.433594 9.3554688 C 29.434391 9.3535905 29.43475 9.351488 29.435547 9.3496094 C 29.443933 9.3308622 29.461004 9.3053604 29.46875 9.2871094 A 0.50005006 0.50005006 0 0 0 29.501953 9.1699219 C 30.45959 6.8476448 31.000023 4.2637742 31 1.5 A 0.50005006 0.50005006 0 0 0 30.498047 1 A 0.50005006 0.50005006 0 0 0 30.496094 1 A 0.50005006 0.50005006 0 0 0 30.484375 1 z M 29.945312 2.0566406 C 29.883957 4.2339159 29.464654 6.2690937 28.769531 8.1445312 L 23.886719 3.2636719 C 25.760213 2.560265 27.772546 2.1213912 29.945312 2.0566406 z M 22.800781 3.6816406 L 28.359375 9.2519531 C 28.315163 9.3374108 28.262459 9.4334186 28.212891 9.5253906 A 0.50005006 0.50005006 0 0 0 28.210938 9.5273438 A 0.50005006 0.50005006 0 0 0 28.166016 9.6015625 C 28.080463 9.7702825 27.984226 9.9316539 27.894531 10.097656 C 27.798656 10.264984 27.689245 10.451446 27.623047 10.582031 A 0.50049853 0.50049853 0 0 0 27.597656 10.642578 C 24.395881 16.189844 18.922383 20.156276 13.798828 22.328125 L 13.144531 21.673828 C 13.982982 21.08573 14.764349 20.503056 15.412109 19.919922 C 17.290769 18.228722 18.356309 16.430406 18.119141 14.378906 A 0.50005006 0.50005006 0 0 0 18.095703 14.271484 L 18.085938 14.248047 A 0.50005006 0.50005006 0 0 0 17.873047 13.984375 L 17.833984 13.960938 A 0.50005006 0.50005006 0 0 0 17.632812 13.890625 L 17.632812 13.880859 C 15.581387 13.643559 13.779962 14.709891 12.087891 16.587891 C 11.50316 17.236885 10.919299 18.019287 10.330078 18.859375 L 9.6386719 18.167969 C 11.808148 13.053469 15.765515 7.6650882 21.308594 4.4707031 A 0.50007273 0.50007273 0 0 0 21.373047 4.4433594 C 21.742661 4.255854 22.371574 3.9030275 22.800781 3.6816406 z M 21.537109 7.9941406 C 20.903135 7.9941406 20.267592 8.2343937 19.787109 8.7148438 C 18.826143 9.6758438 18.828075 11.249937 19.789062 12.210938 C 20.750028 13.171938 22.322238 13.171938 23.283203 12.210938 C 24.244168 11.249937 24.2461 9.6758438 23.285156 8.7148438 C 22.804674 8.2343937 22.171084 7.9941406 21.537109 7.9941406 z M 21.537109 8.9882812 C 21.913068 8.9882812 22.288717 9.132475 22.578125 9.421875 C 23.156941 10.000675 23.155009 10.925106 22.576172 11.503906 C 21.997356 12.082706 21.074911 12.082706 20.496094 11.503906 C 19.917278 10.925106 19.915346 10.000675 20.494141 9.421875 C 20.783549 9.132475 21.161151 8.9882812 21.537109 8.9882812 z M 11.050781 10.640625 C 11.596936 10.646344 12.109056 10.79435 12.615234 10.953125 C 12.451512 11.176006 12.293346 11.410991 12.132812 11.640625 C 12.120503 11.657878 12.109925 11.676091 12.097656 11.693359 C 11.707074 12.254222 11.324682 12.83207 10.957031 13.435547 C 10.647413 13.937079 10.364411 14.440391 10.087891 14.947266 C 10.039111 15.037822 9.9895777 15.125295 9.9414062 15.216797 C 9.6703965 15.724861 9.4172045 16.230015 9.1796875 16.738281 C 8.9236436 16.454782 8.7078194 16.108943 8.375 15.951172 C 7.8013396 15.679172 7.1342981 15.6211 6.4199219 15.75 C 5.4481427 15.9253 4.2943486 16.544481 3.03125 17.363281 C 4.2956227 15.120981 5.786858 13.200847 7.4160156 12.060547 C 8.4576953 11.331447 9.5017488 10.8666 10.492188 10.6875 C 10.682816 10.653025 10.86873 10.638719 11.050781 10.640625 z M 17.033203 14.96875 C 17.020393 16.41765 16.323377 17.744569 14.742188 19.167969 C 13.323854 20.444769 11.186654 21.802578 8.7324219 23.267578 C 10.19626 20.811978 11.552687 18.673659 12.830078 17.255859 C 14.254637 15.674759 15.583055 14.98055 17.033203 14.96875 z M 21.048828 19.376953 C 21.539213 20.930353 21.234354 22.736784 19.941406 24.583984 C 18.799395 26.215584 16.874111 27.709309 14.626953 28.974609 C 15.446365 27.701709 16.063177 26.536888 16.230469 25.554688 C 16.423682 24.42034 15.967549 23.506776 15.216797 22.792969 C 15.741945 22.548489 16.264855 22.287878 16.791016 22.007812 C 16.81696 21.994337 16.841315 21.980319 16.867188 21.966797 C 17.331181 21.718279 17.795003 21.477163 18.255859 21.201172 C 19.242504 20.625418 20.172343 20.015181 21.048828 19.376953 z M 7.8222656 21.806641 L 3.921875 25.708984 L 4.3945312 26.183594 L 6.4628906 24.115234 C 6.9289812 23.311234 7.3810759 22.538541 7.8222656 21.806641 z M 10.15625 24.210938 C 9.4238092 24.652638 8.6514988 25.105466 7.8476562 25.572266 L 5.3417969 28.078125 L 5.8164062 28.550781 L 10.15625 24.210938 z M 6.3398438 25.185547 L 3.4472656 28.078125 L 3.921875 28.550781 L 6.8144531 25.658203 C 6.8019681 25.658203 6.7892257 25.648578 6.7773438 25.642578 A 0.50005006 0.50005006 0 0 1 6.765625 25.632812 C 6.749749 25.622813 6.734116 25.613516 6.71875 25.603516 L 6.7246094 25.613281 C 6.7059934 25.602281 6.6877519 25.589172 6.6699219 25.576172 C 6.6484669 25.561172 6.6276159 25.544344 6.6074219 25.527344 A 0.50005006 0.50005006 0 0 1 6.5957031 25.515625 A 0.50005006 0.50005006 0 0 1 6.5722656 25.494141 A 0.50005006 0.50005006 0 0 1 6.5664062 25.494141 A 0.50005006 0.50005006 0 0 0 6.5644531 25.494141 A 0.50005006 0.50005006 0 0 1 6.5585938 25.484375 C 6.5515938 25.474375 6.5439194 25.474844 6.5371094 25.464844 A 0.50005006 0.50005006 0 0 1 6.5292969 25.453125 C 6.5208969 25.443125 6.5119863 25.439687 6.5039062 25.429688 C 6.4890383 25.413687 6.4747065 25.397859 6.4609375 25.380859 A 0.50005006 0.50005006 0 0 1 6.4570312 25.369141 C 6.4393863 25.347141 6.4257713 25.322828 6.4101562 25.298828 A 0.50005006 0.50005006 0 0 1 6.3496094 25.203125 C 6.3467206 25.193925 6.3426899 25.191463 6.3398438 25.185547 z M 3.4472656 26.183594 L 2.9726562 26.65625 L 3.4472656 27.130859 L 3.9199219 26.65625 L 3.4472656 26.183594 z M 2.9726562 28.550781 L 2.5 29.025391 L 2.9726562 29.498047 L 3.4472656 29.025391 L 2.9726562 28.550781 z M 4.8671875 28.550781 L 4.3945312 29.025391 L 4.8671875 29.498047 L 5.3417969 29.025391 L 4.8671875 28.550781 z " color="#000" font-family="sans-serif" font-weight="400" overflow="visible" white-space="normal" style="line-height:normal;text-indent:0;text-align:start;text-decoration-line:none;text-decoration-style:solid;text-decoration-color:#000;text-transform:none;block-progression:tb;isolation:auto;mix-blend-mode:normal">
			</path>
		</svg>
	</g>
</svg>
